<mxfile host="app.diagrams.net" modified="2020-08-03T01:21:36.150Z" agent="5.0 (Macintosh; Intel Mac OS X 10_15_5) AppleWebKit/605.1.15 (KHTML, like Gecko) Version/13.1.1 Safari/605.1.15" etag="jJy8llFKrSDpprE7RSbU" version="13.5.8" type="github">
  <diagram id="mRK1zC10a4YXBNRhGLgW" name="Page-1">
    <mxGraphModel dx="946" dy="662" grid="1" gridSize="10" guides="1" tooltips="1" connect="1" arrows="1" fold="1" page="1" pageScale="1" pageWidth="827" pageHeight="1169" background="none" math="0" shadow="0">
      <root>
        <mxCell id="0" />
        <mxCell id="1" parent="0" />
        <mxCell id="Za427O05cXuheI7HC3TR-265" value="" style="rounded=0;whiteSpace=wrap;html=1;strokeWidth=4;strokeColor=#FF0000;dashed=1;" parent="1" vertex="1">
          <mxGeometry x="170" y="1015" width="110" height="70" as="geometry" />
        </mxCell>
        <mxCell id="Za427O05cXuheI7HC3TR-227" value="" style="rounded=0;whiteSpace=wrap;html=1;strokeWidth=1;" parent="1" vertex="1">
          <mxGeometry x="530" y="800" width="110" height="60" as="geometry" />
        </mxCell>
        <mxCell id="Za427O05cXuheI7HC3TR-226" value="" style="rounded=0;whiteSpace=wrap;html=1;strokeWidth=1;" parent="1" vertex="1">
          <mxGeometry x="410" y="800" width="110" height="60" as="geometry" />
        </mxCell>
        <mxCell id="Za427O05cXuheI7HC3TR-225" value="" style="rounded=0;whiteSpace=wrap;html=1;strokeWidth=1;" parent="1" vertex="1">
          <mxGeometry x="290" y="800" width="110" height="60" as="geometry" />
        </mxCell>
        <mxCell id="Za427O05cXuheI7HC3TR-224" value="" style="rounded=0;whiteSpace=wrap;html=1;strokeWidth=1;" parent="1" vertex="1">
          <mxGeometry x="165" y="800" width="115" height="60" as="geometry" />
        </mxCell>
        <mxCell id="Za427O05cXuheI7HC3TR-124" value="" style="rounded=0;whiteSpace=wrap;html=1;strokeColor=#000000;strokeWidth=1;" parent="1" vertex="1">
          <mxGeometry x="600" y="559.91" width="115" height="55" as="geometry" />
        </mxCell>
        <mxCell id="Za427O05cXuheI7HC3TR-121" value="" style="rounded=0;whiteSpace=wrap;html=1;strokeColor=#000000;strokeWidth=1;" parent="1" vertex="1">
          <mxGeometry x="320" y="559.91" width="200" height="55" as="geometry" />
        </mxCell>
        <mxCell id="Za427O05cXuheI7HC3TR-119" value="" style="rounded=0;whiteSpace=wrap;html=1;strokeWidth=1;" parent="1" vertex="1">
          <mxGeometry x="160" y="559.91" width="80" height="55" as="geometry" />
        </mxCell>
        <mxCell id="Za427O05cXuheI7HC3TR-71" value="" style="rounded=0;whiteSpace=wrap;html=1;strokeWidth=4;dashed=1;strokeColor=#FF0000;" parent="1" vertex="1">
          <mxGeometry x="160" y="305" width="140" height="65" as="geometry" />
        </mxCell>
        <mxCell id="Za427O05cXuheI7HC3TR-1" value="" style="endArrow=classic;html=1;" parent="1" edge="1">
          <mxGeometry relative="1" as="geometry">
            <mxPoint x="160" y="180" as="sourcePoint" />
            <mxPoint x="760" y="180" as="targetPoint" />
          </mxGeometry>
        </mxCell>
        <mxCell id="Za427O05cXuheI7HC3TR-31" value="Time" style="edgeLabel;html=1;align=center;verticalAlign=middle;resizable=0;points=[];" parent="Za427O05cXuheI7HC3TR-1" vertex="1" connectable="0">
          <mxGeometry x="0.8226" y="-2" relative="1" as="geometry">
            <mxPoint x="27" y="-2" as="offset" />
          </mxGeometry>
        </mxCell>
        <mxCell id="Za427O05cXuheI7HC3TR-7" value="" style="rounded=0;whiteSpace=wrap;html=1;" parent="1" vertex="1">
          <mxGeometry x="170" y="120" width="120" height="50" as="geometry" />
        </mxCell>
        <mxCell id="Za427O05cXuheI7HC3TR-10" value="1" style="ellipse;whiteSpace=wrap;html=1;aspect=fixed;" parent="1" vertex="1">
          <mxGeometry x="180" y="130" width="30" height="30" as="geometry" />
        </mxCell>
        <mxCell id="Za427O05cXuheI7HC3TR-12" value="2" style="ellipse;whiteSpace=wrap;html=1;aspect=fixed;" parent="1" vertex="1">
          <mxGeometry x="215" y="130" width="30" height="30" as="geometry" />
        </mxCell>
        <mxCell id="Za427O05cXuheI7HC3TR-13" value="3" style="ellipse;whiteSpace=wrap;html=1;aspect=fixed;" parent="1" vertex="1">
          <mxGeometry x="250" y="130" width="30" height="30" as="geometry" />
        </mxCell>
        <mxCell id="Za427O05cXuheI7HC3TR-19" value="" style="rounded=0;whiteSpace=wrap;html=1;" parent="1" vertex="1">
          <mxGeometry x="310" y="120" width="160" height="50" as="geometry" />
        </mxCell>
        <mxCell id="Za427O05cXuheI7HC3TR-20" value="8" style="ellipse;whiteSpace=wrap;html=1;aspect=fixed;" parent="1" vertex="1">
          <mxGeometry x="320" y="130" width="30" height="30" as="geometry" />
        </mxCell>
        <mxCell id="Za427O05cXuheI7HC3TR-21" value="6" style="ellipse;whiteSpace=wrap;html=1;aspect=fixed;" parent="1" vertex="1">
          <mxGeometry x="375" y="130" width="30" height="30" as="geometry" />
        </mxCell>
        <mxCell id="Za427O05cXuheI7HC3TR-22" value="1" style="ellipse;whiteSpace=wrap;html=1;aspect=fixed;" parent="1" vertex="1">
          <mxGeometry x="430" y="130" width="30" height="30" as="geometry" />
        </mxCell>
        <mxCell id="Za427O05cXuheI7HC3TR-23" value="" style="shape=curlyBracket;whiteSpace=wrap;html=1;rounded=1;rotation=90;" parent="1" vertex="1">
          <mxGeometry x="220" y="40" width="20" height="120" as="geometry" />
        </mxCell>
        <mxCell id="Za427O05cXuheI7HC3TR-26" value="" style="rounded=0;whiteSpace=wrap;html=1;" parent="1" vertex="1">
          <mxGeometry x="500" y="120" width="210" height="50" as="geometry" />
        </mxCell>
        <mxCell id="Za427O05cXuheI7HC3TR-27" value="2" style="ellipse;whiteSpace=wrap;html=1;aspect=fixed;" parent="1" vertex="1">
          <mxGeometry x="510" y="130" width="30" height="30" as="geometry" />
        </mxCell>
        <mxCell id="Za427O05cXuheI7HC3TR-28" value="9" style="ellipse;whiteSpace=wrap;html=1;aspect=fixed;" parent="1" vertex="1">
          <mxGeometry x="565" y="130" width="30" height="30" as="geometry" />
        </mxCell>
        <mxCell id="Za427O05cXuheI7HC3TR-29" value="7" style="ellipse;whiteSpace=wrap;html=1;aspect=fixed;" parent="1" vertex="1">
          <mxGeometry x="670" y="130" width="30" height="30" as="geometry" />
        </mxCell>
        <mxCell id="Za427O05cXuheI7HC3TR-30" value="count size=3" style="text;html=1;align=center;verticalAlign=middle;resizable=0;points=[];autosize=1;" parent="1" vertex="1">
          <mxGeometry x="190" y="70" width="80" height="20" as="geometry" />
        </mxCell>
        <mxCell id="Za427O05cXuheI7HC3TR-32" value="" style="endArrow=classic;html=1;" parent="1" edge="1">
          <mxGeometry relative="1" as="geometry">
            <mxPoint x="160" y="390" as="sourcePoint" />
            <mxPoint x="760" y="390" as="targetPoint" />
          </mxGeometry>
        </mxCell>
        <mxCell id="Za427O05cXuheI7HC3TR-33" value="Time" style="edgeLabel;html=1;align=center;verticalAlign=middle;resizable=0;points=[];" parent="Za427O05cXuheI7HC3TR-32" vertex="1" connectable="0">
          <mxGeometry x="0.8226" y="-2" relative="1" as="geometry">
            <mxPoint x="27" y="-2" as="offset" />
          </mxGeometry>
        </mxCell>
        <mxCell id="Za427O05cXuheI7HC3TR-34" value="" style="rounded=0;whiteSpace=wrap;html=1;" parent="1" vertex="1">
          <mxGeometry x="170" y="310" width="120" height="50" as="geometry" />
        </mxCell>
        <mxCell id="Za427O05cXuheI7HC3TR-35" value="1" style="ellipse;whiteSpace=wrap;html=1;aspect=fixed;" parent="1" vertex="1">
          <mxGeometry x="180" y="320" width="30" height="30" as="geometry" />
        </mxCell>
        <mxCell id="Za427O05cXuheI7HC3TR-36" value="2" style="ellipse;whiteSpace=wrap;html=1;aspect=fixed;" parent="1" vertex="1">
          <mxGeometry x="215" y="320" width="30" height="30" as="geometry" />
        </mxCell>
        <mxCell id="Za427O05cXuheI7HC3TR-37" value="3" style="ellipse;whiteSpace=wrap;html=1;aspect=fixed;" parent="1" vertex="1">
          <mxGeometry x="250" y="320" width="30" height="30" as="geometry" />
        </mxCell>
        <mxCell id="Za427O05cXuheI7HC3TR-38" value="" style="rounded=0;whiteSpace=wrap;html=1;" parent="1" vertex="1">
          <mxGeometry x="310" y="310" width="160" height="50" as="geometry" />
        </mxCell>
        <mxCell id="Za427O05cXuheI7HC3TR-39" value="8" style="ellipse;whiteSpace=wrap;html=1;aspect=fixed;" parent="1" vertex="1">
          <mxGeometry x="320" y="320" width="30" height="30" as="geometry" />
        </mxCell>
        <mxCell id="Za427O05cXuheI7HC3TR-40" value="6" style="ellipse;whiteSpace=wrap;html=1;aspect=fixed;" parent="1" vertex="1">
          <mxGeometry x="375" y="320" width="30" height="30" as="geometry" />
        </mxCell>
        <mxCell id="Za427O05cXuheI7HC3TR-41" value="1" style="ellipse;whiteSpace=wrap;html=1;aspect=fixed;" parent="1" vertex="1">
          <mxGeometry x="430" y="320" width="30" height="30" as="geometry" />
        </mxCell>
        <mxCell id="Za427O05cXuheI7HC3TR-43" value="" style="rounded=0;whiteSpace=wrap;html=1;" parent="1" vertex="1">
          <mxGeometry x="500" y="310" width="210" height="50" as="geometry" />
        </mxCell>
        <mxCell id="Za427O05cXuheI7HC3TR-44" value="2" style="ellipse;whiteSpace=wrap;html=1;aspect=fixed;" parent="1" vertex="1">
          <mxGeometry x="510" y="320" width="30" height="30" as="geometry" />
        </mxCell>
        <mxCell id="Za427O05cXuheI7HC3TR-45" value="9" style="ellipse;whiteSpace=wrap;html=1;aspect=fixed;" parent="1" vertex="1">
          <mxGeometry x="565" y="320" width="30" height="30" as="geometry" />
        </mxCell>
        <mxCell id="Za427O05cXuheI7HC3TR-46" value="7" style="ellipse;whiteSpace=wrap;html=1;aspect=fixed;" parent="1" vertex="1">
          <mxGeometry x="670" y="320" width="30" height="30" as="geometry" />
        </mxCell>
        <mxCell id="Za427O05cXuheI7HC3TR-61" value="" style="endArrow=none;dashed=1;html=1;strokeWidth=4;strokeColor=#00CC00;" parent="1" edge="1">
          <mxGeometry width="50" height="50" relative="1" as="geometry">
            <mxPoint x="250" y="370" as="sourcePoint" />
            <mxPoint x="250" y="300" as="targetPoint" />
          </mxGeometry>
        </mxCell>
        <mxCell id="Za427O05cXuheI7HC3TR-63" value="" style="endArrow=none;dashed=1;html=1;strokeWidth=4;strokeColor=#00CC00;" parent="1" edge="1">
          <mxGeometry width="50" height="50" relative="1" as="geometry">
            <mxPoint x="250" y="300" as="sourcePoint" />
            <mxPoint x="480" y="300" as="targetPoint" />
          </mxGeometry>
        </mxCell>
        <mxCell id="Za427O05cXuheI7HC3TR-64" value="" style="endArrow=none;dashed=1;html=1;strokeWidth=4;strokeColor=#00CC00;" parent="1" edge="1">
          <mxGeometry width="50" height="50" relative="1" as="geometry">
            <mxPoint x="480" y="370" as="sourcePoint" />
            <mxPoint x="480" y="300" as="targetPoint" />
          </mxGeometry>
        </mxCell>
        <mxCell id="Za427O05cXuheI7HC3TR-65" value="" style="endArrow=none;dashed=1;html=1;strokeWidth=4;strokeColor=#00CC00;" parent="1" edge="1">
          <mxGeometry width="50" height="50" relative="1" as="geometry">
            <mxPoint x="250" y="370" as="sourcePoint" />
            <mxPoint x="480" y="370" as="targetPoint" />
          </mxGeometry>
        </mxCell>
        <mxCell id="Za427O05cXuheI7HC3TR-66" value="" style="endArrow=none;dashed=1;html=1;strokeWidth=4;strokeColor=#0000FF;" parent="1" edge="1">
          <mxGeometry width="50" height="50" relative="1" as="geometry">
            <mxPoint x="420" y="380" as="sourcePoint" />
            <mxPoint x="420" y="290" as="targetPoint" />
          </mxGeometry>
        </mxCell>
        <mxCell id="Za427O05cXuheI7HC3TR-67" value="" style="endArrow=none;dashed=1;html=1;strokeWidth=4;strokeColor=#0000FF;" parent="1" edge="1">
          <mxGeometry width="50" height="50" relative="1" as="geometry">
            <mxPoint x="420" y="290" as="sourcePoint" />
            <mxPoint x="730" y="290" as="targetPoint" />
          </mxGeometry>
        </mxCell>
        <mxCell id="Za427O05cXuheI7HC3TR-68" value="" style="endArrow=none;dashed=1;html=1;strokeWidth=4;strokeColor=#0000FF;" parent="1" edge="1">
          <mxGeometry width="50" height="50" relative="1" as="geometry">
            <mxPoint x="730" y="380" as="sourcePoint" />
            <mxPoint x="730" y="290" as="targetPoint" />
          </mxGeometry>
        </mxCell>
        <mxCell id="Za427O05cXuheI7HC3TR-69" value="" style="endArrow=none;dashed=1;html=1;strokeWidth=4;strokeColor=#0000CC;" parent="1" edge="1">
          <mxGeometry width="50" height="50" relative="1" as="geometry">
            <mxPoint x="420" y="380" as="sourcePoint" />
            <mxPoint x="730" y="380" as="targetPoint" />
          </mxGeometry>
        </mxCell>
        <mxCell id="Za427O05cXuheI7HC3TR-92" value="" style="endArrow=classic;html=1;" parent="1" edge="1">
          <mxGeometry relative="1" as="geometry">
            <mxPoint x="160" y="630" as="sourcePoint" />
            <mxPoint x="760" y="630.09" as="targetPoint" />
          </mxGeometry>
        </mxCell>
        <mxCell id="Za427O05cXuheI7HC3TR-93" value="Time" style="edgeLabel;html=1;align=center;verticalAlign=middle;resizable=0;points=[];" parent="Za427O05cXuheI7HC3TR-92" vertex="1" connectable="0">
          <mxGeometry x="0.8226" y="-2" relative="1" as="geometry">
            <mxPoint x="27" y="-2" as="offset" />
          </mxGeometry>
        </mxCell>
        <mxCell id="Za427O05cXuheI7HC3TR-110" value="2s" style="edgeLabel;html=1;align=center;verticalAlign=middle;resizable=0;points=[];" parent="Za427O05cXuheI7HC3TR-92" vertex="1" connectable="0">
          <mxGeometry x="-0.5062" relative="1" as="geometry">
            <mxPoint x="-68" as="offset" />
          </mxGeometry>
        </mxCell>
        <mxCell id="Za427O05cXuheI7HC3TR-112" value="4s" style="edgeLabel;html=1;align=center;verticalAlign=middle;resizable=0;points=[];" parent="Za427O05cXuheI7HC3TR-92" vertex="1" connectable="0">
          <mxGeometry x="-0.2719" y="2" relative="1" as="geometry">
            <mxPoint x="-58" y="1.97" as="offset" />
          </mxGeometry>
        </mxCell>
        <mxCell id="Za427O05cXuheI7HC3TR-114" value="8s" style="edgeLabel;html=1;align=center;verticalAlign=middle;resizable=0;points=[];" parent="Za427O05cXuheI7HC3TR-92" vertex="1" connectable="0">
          <mxGeometry x="0.2031" y="2" relative="1" as="geometry">
            <mxPoint x="-41" as="offset" />
          </mxGeometry>
        </mxCell>
        <mxCell id="Za427O05cXuheI7HC3TR-115" value="10s" style="edgeLabel;html=1;align=center;verticalAlign=middle;resizable=0;points=[];" parent="Za427O05cXuheI7HC3TR-92" vertex="1" connectable="0">
          <mxGeometry x="0.4563" relative="1" as="geometry">
            <mxPoint x="-37" as="offset" />
          </mxGeometry>
        </mxCell>
        <mxCell id="Za427O05cXuheI7HC3TR-116" value="12s" style="edgeLabel;html=1;align=center;verticalAlign=middle;resizable=0;points=[];" parent="Za427O05cXuheI7HC3TR-92" vertex="1" connectable="0">
          <mxGeometry x="0.6938" y="1" relative="1" as="geometry">
            <mxPoint x="-28" as="offset" />
          </mxGeometry>
        </mxCell>
        <mxCell id="Za427O05cXuheI7HC3TR-95" value="1" style="ellipse;whiteSpace=wrap;html=1;aspect=fixed;" parent="1" vertex="1">
          <mxGeometry x="170" y="574.91" width="30" height="30" as="geometry" />
        </mxCell>
        <mxCell id="Za427O05cXuheI7HC3TR-96" value="2" style="ellipse;whiteSpace=wrap;html=1;aspect=fixed;" parent="1" vertex="1">
          <mxGeometry x="205" y="575" width="30" height="30" as="geometry" />
        </mxCell>
        <mxCell id="Za427O05cXuheI7HC3TR-101" value="3" style="ellipse;whiteSpace=wrap;html=1;aspect=fixed;" parent="1" vertex="1">
          <mxGeometry x="330" y="574.91" width="30" height="30" as="geometry" />
        </mxCell>
        <mxCell id="Za427O05cXuheI7HC3TR-104" value="8" style="ellipse;whiteSpace=wrap;html=1;aspect=fixed;" parent="1" vertex="1">
          <mxGeometry x="370" y="574.91" width="30" height="30" as="geometry" />
        </mxCell>
        <mxCell id="Za427O05cXuheI7HC3TR-105" value="6" style="ellipse;whiteSpace=wrap;html=1;aspect=fixed;" parent="1" vertex="1">
          <mxGeometry x="410" y="574.91" width="30" height="30" as="geometry" />
        </mxCell>
        <mxCell id="Za427O05cXuheI7HC3TR-106" value="1" style="ellipse;whiteSpace=wrap;html=1;aspect=fixed;" parent="1" vertex="1">
          <mxGeometry x="450" y="574.91" width="30" height="30" as="geometry" />
        </mxCell>
        <mxCell id="Za427O05cXuheI7HC3TR-113" value="6s" style="edgeLabel;html=1;align=center;verticalAlign=middle;resizable=0;points=[];" parent="1" vertex="1" connectable="0">
          <mxGeometry x="330" y="630" as="geometry">
            <mxPoint x="68" y="-2" as="offset" />
          </mxGeometry>
        </mxCell>
        <mxCell id="Za427O05cXuheI7HC3TR-118" value="9" style="ellipse;whiteSpace=wrap;html=1;aspect=fixed;" parent="1" vertex="1">
          <mxGeometry x="610" y="574.91" width="30" height="30" as="geometry" />
        </mxCell>
        <mxCell id="Za427O05cXuheI7HC3TR-122" value="2" style="ellipse;whiteSpace=wrap;html=1;aspect=fixed;" parent="1" vertex="1">
          <mxGeometry x="490" y="574.91" width="30" height="30" as="geometry" />
        </mxCell>
        <mxCell id="Za427O05cXuheI7HC3TR-123" value="7" style="ellipse;whiteSpace=wrap;html=1;aspect=fixed;" parent="1" vertex="1">
          <mxGeometry x="650" y="574.91" width="30" height="30" as="geometry" />
        </mxCell>
        <mxCell id="Za427O05cXuheI7HC3TR-125" value="" style="shape=curlyBracket;whiteSpace=wrap;html=1;rounded=1;strokeColor=#000000;strokeWidth=1;rotation=89;" parent="1" vertex="1">
          <mxGeometry x="270" y="500" width="20" height="85" as="geometry" />
        </mxCell>
        <mxCell id="Za427O05cXuheI7HC3TR-126" value="" style="shape=curlyBracket;whiteSpace=wrap;html=1;rounded=1;strokeColor=#000000;strokeWidth=1;rotation=89;" parent="1" vertex="1">
          <mxGeometry x="550" y="500" width="20" height="85" as="geometry" />
        </mxCell>
        <mxCell id="Za427O05cXuheI7HC3TR-127" value="间隔2s" style="text;html=1;align=center;verticalAlign=middle;resizable=0;points=[];autosize=1;" parent="1" vertex="1">
          <mxGeometry x="255" y="514.91" width="50" height="20" as="geometry" />
        </mxCell>
        <mxCell id="Za427O05cXuheI7HC3TR-128" value="间隔2s" style="text;html=1;align=center;verticalAlign=middle;resizable=0;points=[];autosize=1;" parent="1" vertex="1">
          <mxGeometry x="535" y="514.91" width="50" height="20" as="geometry" />
        </mxCell>
        <mxCell id="Za427O05cXuheI7HC3TR-130" value="&lt;span style=&quot;font-size: medium&quot;&gt;滚动计数窗口&lt;/span&gt;&lt;span style=&quot;font-size: medium&quot;&gt;&lt;br&gt;&lt;/span&gt;" style="text;html=1;align=center;verticalAlign=middle;resizable=0;points=[];autosize=1;" parent="1" vertex="1">
          <mxGeometry x="20" y="135" width="110" height="20" as="geometry" />
        </mxCell>
        <mxCell id="Za427O05cXuheI7HC3TR-132" value="&lt;span style=&quot;font-size: medium&quot;&gt;滑动计数窗口&lt;/span&gt;&lt;span style=&quot;font-size: medium&quot;&gt;&lt;br&gt;&lt;/span&gt;" style="text;html=1;align=center;verticalAlign=middle;resizable=0;points=[];autosize=1;" parent="1" vertex="1">
          <mxGeometry x="20" y="330" width="110" height="20" as="geometry" />
        </mxCell>
        <mxCell id="Za427O05cXuheI7HC3TR-134" value="&lt;span style=&quot;font-size: medium&quot;&gt;会话窗口&lt;/span&gt;&lt;span style=&quot;font-size: medium&quot;&gt;&lt;br&gt;&lt;/span&gt;" style="text;html=1;align=center;verticalAlign=middle;resizable=0;points=[];autosize=1;" parent="1" vertex="1">
          <mxGeometry x="20" y="580" width="80" height="20" as="geometry" />
        </mxCell>
        <mxCell id="Za427O05cXuheI7HC3TR-193" value="0s" style="text;html=1;align=center;verticalAlign=middle;resizable=0;points=[];autosize=1;" parent="1" vertex="1">
          <mxGeometry x="145" y="620" width="30" height="20" as="geometry" />
        </mxCell>
        <mxCell id="Za427O05cXuheI7HC3TR-197" value="" style="endArrow=classic;html=1;" parent="1" edge="1">
          <mxGeometry relative="1" as="geometry">
            <mxPoint x="165" y="870" as="sourcePoint" />
            <mxPoint x="765" y="870.0900000000001" as="targetPoint" />
          </mxGeometry>
        </mxCell>
        <mxCell id="Za427O05cXuheI7HC3TR-198" value="Time" style="edgeLabel;html=1;align=center;verticalAlign=middle;resizable=0;points=[];" parent="Za427O05cXuheI7HC3TR-197" vertex="1" connectable="0">
          <mxGeometry x="0.8226" y="-2" relative="1" as="geometry">
            <mxPoint x="27" y="-2" as="offset" />
          </mxGeometry>
        </mxCell>
        <mxCell id="Za427O05cXuheI7HC3TR-203" value="12s" style="edgeLabel;html=1;align=center;verticalAlign=middle;resizable=0;points=[];" parent="Za427O05cXuheI7HC3TR-197" vertex="1" connectable="0">
          <mxGeometry x="0.6938" y="1" relative="1" as="geometry">
            <mxPoint x="-28" as="offset" />
          </mxGeometry>
        </mxCell>
        <mxCell id="Za427O05cXuheI7HC3TR-228" value="3s" style="edgeLabel;html=1;align=center;verticalAlign=middle;resizable=0;points=[];" parent="Za427O05cXuheI7HC3TR-197" vertex="1" connectable="0">
          <mxGeometry x="-0.59" y="-3" relative="1" as="geometry">
            <mxPoint as="offset" />
          </mxGeometry>
        </mxCell>
        <mxCell id="Za427O05cXuheI7HC3TR-229" value="9s" style="edgeLabel;html=1;align=center;verticalAlign=middle;resizable=0;points=[];" parent="Za427O05cXuheI7HC3TR-197" vertex="1" connectable="0">
          <mxGeometry x="0.1933" y="-3" relative="1" as="geometry">
            <mxPoint y="-3.05" as="offset" />
          </mxGeometry>
        </mxCell>
        <mxCell id="Za427O05cXuheI7HC3TR-204" value="1" style="ellipse;whiteSpace=wrap;html=1;aspect=fixed;" parent="1" vertex="1">
          <mxGeometry x="175" y="814.9100000000001" width="25.09" height="25.09" as="geometry" />
        </mxCell>
        <mxCell id="Za427O05cXuheI7HC3TR-205" value="2" style="ellipse;whiteSpace=wrap;html=1;aspect=fixed;" parent="1" vertex="1">
          <mxGeometry x="210" y="814.9100000000001" width="25" height="25" as="geometry" />
        </mxCell>
        <mxCell id="Za427O05cXuheI7HC3TR-206" value="3" style="ellipse;whiteSpace=wrap;html=1;aspect=fixed;" parent="1" vertex="1">
          <mxGeometry x="250" y="814.9100000000001" width="25.09" height="25.09" as="geometry" />
        </mxCell>
        <mxCell id="Za427O05cXuheI7HC3TR-207" value="8" style="ellipse;whiteSpace=wrap;html=1;aspect=fixed;" parent="1" vertex="1">
          <mxGeometry x="409.90999999999997" y="814.8200000000002" width="25.09" height="25.09" as="geometry" />
        </mxCell>
        <mxCell id="Za427O05cXuheI7HC3TR-208" value="6" style="ellipse;whiteSpace=wrap;html=1;aspect=fixed;" parent="1" vertex="1">
          <mxGeometry x="435" y="814.8200000000002" width="25.09" height="25.09" as="geometry" />
        </mxCell>
        <mxCell id="Za427O05cXuheI7HC3TR-209" value="1" style="ellipse;whiteSpace=wrap;html=1;aspect=fixed;" parent="1" vertex="1">
          <mxGeometry x="459.91" y="814.9100000000001" width="25.09" height="25.09" as="geometry" />
        </mxCell>
        <mxCell id="Za427O05cXuheI7HC3TR-210" value="6s" style="edgeLabel;html=1;align=center;verticalAlign=middle;resizable=0;points=[];" parent="1" vertex="1" connectable="0">
          <mxGeometry x="335" y="870" as="geometry">
            <mxPoint x="68" y="-2" as="offset" />
          </mxGeometry>
        </mxCell>
        <mxCell id="Za427O05cXuheI7HC3TR-211" value="9" style="ellipse;whiteSpace=wrap;html=1;aspect=fixed;" parent="1" vertex="1">
          <mxGeometry x="570" y="814.9100000000001" width="25.09" height="25.09" as="geometry" />
        </mxCell>
        <mxCell id="Za427O05cXuheI7HC3TR-212" value="2" style="ellipse;whiteSpace=wrap;html=1;aspect=fixed;" parent="1" vertex="1">
          <mxGeometry x="489.90999999999997" y="814.9100000000001" width="25.09" height="25.09" as="geometry" />
        </mxCell>
        <mxCell id="Za427O05cXuheI7HC3TR-213" value="7" style="ellipse;whiteSpace=wrap;html=1;aspect=fixed;" parent="1" vertex="1">
          <mxGeometry x="610" y="814.9100000000001" width="25.09" height="25.09" as="geometry" />
        </mxCell>
        <mxCell id="Za427O05cXuheI7HC3TR-218" value="0s" style="text;html=1;align=center;verticalAlign=middle;resizable=0;points=[];autosize=1;" parent="1" vertex="1">
          <mxGeometry x="150" y="860" width="30" height="20" as="geometry" />
        </mxCell>
        <mxCell id="Za427O05cXuheI7HC3TR-230" value="&lt;span style=&quot;font-size: medium&quot;&gt;滚动时间窗口&lt;/span&gt;&lt;span style=&quot;font-size: medium&quot;&gt;&lt;br&gt;&lt;/span&gt;" style="text;html=1;align=center;verticalAlign=middle;resizable=0;points=[];autosize=1;" parent="1" vertex="1">
          <mxGeometry x="20" y="830" width="110" height="20" as="geometry" />
        </mxCell>
        <mxCell id="Za427O05cXuheI7HC3TR-232" value="" style="rounded=0;whiteSpace=wrap;html=1;strokeColor=#000000;strokeWidth=1;" parent="1" vertex="1">
          <mxGeometry x="530" y="1020" width="100" height="60" as="geometry" />
        </mxCell>
        <mxCell id="Za427O05cXuheI7HC3TR-233" value="" style="rounded=0;whiteSpace=wrap;html=1;strokeColor=#000000;strokeWidth=1;" parent="1" vertex="1">
          <mxGeometry x="410" y="1020" width="100" height="60" as="geometry" />
        </mxCell>
        <mxCell id="Za427O05cXuheI7HC3TR-234" value="" style="rounded=0;whiteSpace=wrap;html=1;strokeColor=#000000;strokeWidth=1;" parent="1" vertex="1">
          <mxGeometry x="290" y="1020" width="100" height="60" as="geometry" />
        </mxCell>
        <mxCell id="Za427O05cXuheI7HC3TR-235" value="" style="rounded=0;whiteSpace=wrap;html=1;strokeColor=#000000;strokeWidth=1;" parent="1" vertex="1">
          <mxGeometry x="175" y="1019.91" width="100" height="60" as="geometry" />
        </mxCell>
        <mxCell id="Za427O05cXuheI7HC3TR-236" value="" style="endArrow=classic;html=1;" parent="1" edge="1">
          <mxGeometry relative="1" as="geometry">
            <mxPoint x="165" y="1120" as="sourcePoint" />
            <mxPoint x="765" y="1120.0900000000001" as="targetPoint" />
          </mxGeometry>
        </mxCell>
        <mxCell id="Za427O05cXuheI7HC3TR-237" value="Time" style="edgeLabel;html=1;align=center;verticalAlign=middle;resizable=0;points=[];" parent="Za427O05cXuheI7HC3TR-236" vertex="1" connectable="0">
          <mxGeometry x="0.8226" y="-2" relative="1" as="geometry">
            <mxPoint x="27" y="-2" as="offset" />
          </mxGeometry>
        </mxCell>
        <mxCell id="Za427O05cXuheI7HC3TR-238" value="12s" style="edgeLabel;html=1;align=center;verticalAlign=middle;resizable=0;points=[];" parent="Za427O05cXuheI7HC3TR-236" vertex="1" connectable="0">
          <mxGeometry x="0.6938" y="1" relative="1" as="geometry">
            <mxPoint x="-28" as="offset" />
          </mxGeometry>
        </mxCell>
        <mxCell id="Za427O05cXuheI7HC3TR-239" value="3s" style="edgeLabel;html=1;align=center;verticalAlign=middle;resizable=0;points=[];" parent="Za427O05cXuheI7HC3TR-236" vertex="1" connectable="0">
          <mxGeometry x="-0.59" y="-3" relative="1" as="geometry">
            <mxPoint as="offset" />
          </mxGeometry>
        </mxCell>
        <mxCell id="Za427O05cXuheI7HC3TR-240" value="9s" style="edgeLabel;html=1;align=center;verticalAlign=middle;resizable=0;points=[];" parent="Za427O05cXuheI7HC3TR-236" vertex="1" connectable="0">
          <mxGeometry x="0.1933" y="-3" relative="1" as="geometry">
            <mxPoint y="-3.05" as="offset" />
          </mxGeometry>
        </mxCell>
        <mxCell id="Za427O05cXuheI7HC3TR-241" value="1" style="ellipse;whiteSpace=wrap;html=1;aspect=fixed;" parent="1" vertex="1">
          <mxGeometry x="175" y="1034.91" width="25.09" height="25.09" as="geometry" />
        </mxCell>
        <mxCell id="Za427O05cXuheI7HC3TR-242" value="2" style="ellipse;whiteSpace=wrap;html=1;aspect=fixed;" parent="1" vertex="1">
          <mxGeometry x="210" y="1034.91" width="25" height="25" as="geometry" />
        </mxCell>
        <mxCell id="Za427O05cXuheI7HC3TR-243" value="3" style="ellipse;whiteSpace=wrap;html=1;aspect=fixed;" parent="1" vertex="1">
          <mxGeometry x="240" y="1034.91" width="25.09" height="25.09" as="geometry" />
        </mxCell>
        <mxCell id="Za427O05cXuheI7HC3TR-244" value="8" style="ellipse;whiteSpace=wrap;html=1;aspect=fixed;" parent="1" vertex="1">
          <mxGeometry x="409.90999999999997" y="1034.8200000000002" width="25.09" height="25.09" as="geometry" />
        </mxCell>
        <mxCell id="Za427O05cXuheI7HC3TR-245" value="6" style="ellipse;whiteSpace=wrap;html=1;aspect=fixed;" parent="1" vertex="1">
          <mxGeometry x="435" y="1034.8200000000002" width="25.09" height="25.09" as="geometry" />
        </mxCell>
        <mxCell id="Za427O05cXuheI7HC3TR-246" value="1" style="ellipse;whiteSpace=wrap;html=1;aspect=fixed;" parent="1" vertex="1">
          <mxGeometry x="459.91" y="1034.91" width="25.09" height="25.09" as="geometry" />
        </mxCell>
        <mxCell id="Za427O05cXuheI7HC3TR-247" value="6s" style="edgeLabel;html=1;align=center;verticalAlign=middle;resizable=0;points=[];" parent="1" vertex="1" connectable="0">
          <mxGeometry x="335" y="1120" as="geometry">
            <mxPoint x="68" y="-2" as="offset" />
          </mxGeometry>
        </mxCell>
        <mxCell id="Za427O05cXuheI7HC3TR-248" value="9" style="ellipse;whiteSpace=wrap;html=1;aspect=fixed;" parent="1" vertex="1">
          <mxGeometry x="550" y="1034.91" width="25.09" height="25.09" as="geometry" />
        </mxCell>
        <mxCell id="Za427O05cXuheI7HC3TR-249" value="2" style="ellipse;whiteSpace=wrap;html=1;aspect=fixed;" parent="1" vertex="1">
          <mxGeometry x="484.90999999999997" y="1034.91" width="25.09" height="25.09" as="geometry" />
        </mxCell>
        <mxCell id="Za427O05cXuheI7HC3TR-250" value="7" style="ellipse;whiteSpace=wrap;html=1;aspect=fixed;" parent="1" vertex="1">
          <mxGeometry x="592.45" y="1034.91" width="25.09" height="25.09" as="geometry" />
        </mxCell>
        <mxCell id="Za427O05cXuheI7HC3TR-251" value="0s" style="text;html=1;align=center;verticalAlign=middle;resizable=0;points=[];autosize=1;" parent="1" vertex="1">
          <mxGeometry x="150" y="1110" width="30" height="20" as="geometry" />
        </mxCell>
        <mxCell id="Za427O05cXuheI7HC3TR-252" value="&lt;span style=&quot;font-size: medium&quot;&gt;滑动时间窗口&lt;/span&gt;&lt;span style=&quot;font-size: medium&quot;&gt;&lt;br&gt;&lt;/span&gt;" style="text;html=1;align=center;verticalAlign=middle;resizable=0;points=[];autosize=1;" parent="1" vertex="1">
          <mxGeometry x="20" y="1039.9099999999999" width="110" height="20" as="geometry" />
        </mxCell>
        <mxCell id="Za427O05cXuheI7HC3TR-256" value="" style="shape=curlyBracket;whiteSpace=wrap;html=1;rounded=1;strokeColor=#000000;strokeWidth=1;rotation=90;size=0.5;" parent="1" vertex="1">
          <mxGeometry x="211" y="720" width="20" height="120" as="geometry" />
        </mxCell>
        <mxCell id="Za427O05cXuheI7HC3TR-263" value="window size=3s" style="text;html=1;align=center;verticalAlign=middle;resizable=0;points=[];autosize=1;" parent="1" vertex="1">
          <mxGeometry x="170" y="760" width="100" height="20" as="geometry" />
        </mxCell>
        <mxCell id="Za427O05cXuheI7HC3TR-269" value="" style="endArrow=none;dashed=1;html=1;strokeWidth=4;strokeColor=#00CC00;" parent="1" edge="1">
          <mxGeometry width="50" height="50" relative="1" as="geometry">
            <mxPoint x="160" y="1090" as="sourcePoint" />
            <mxPoint x="160" y="1010" as="targetPoint" />
          </mxGeometry>
        </mxCell>
        <mxCell id="Za427O05cXuheI7HC3TR-271" value="" style="endArrow=none;dashed=1;html=1;strokeColor=#00CC00;strokeWidth=4;" parent="1" edge="1">
          <mxGeometry width="50" height="50" relative="1" as="geometry">
            <mxPoint x="160" y="1010" as="sourcePoint" />
            <mxPoint x="400" y="1010" as="targetPoint" />
          </mxGeometry>
        </mxCell>
        <mxCell id="Za427O05cXuheI7HC3TR-272" value="" style="endArrow=none;dashed=1;html=1;strokeColor=#00CC00;strokeWidth=4;" parent="1" edge="1">
          <mxGeometry width="50" height="50" relative="1" as="geometry">
            <mxPoint x="400" y="1090" as="sourcePoint" />
            <mxPoint x="400" y="1010" as="targetPoint" />
          </mxGeometry>
        </mxCell>
        <mxCell id="Za427O05cXuheI7HC3TR-273" value="" style="endArrow=none;dashed=1;html=1;strokeColor=#00CC00;strokeWidth=4;" parent="1" edge="1">
          <mxGeometry width="50" height="50" relative="1" as="geometry">
            <mxPoint x="160" y="1090" as="sourcePoint" />
            <mxPoint x="400" y="1090" as="targetPoint" />
          </mxGeometry>
        </mxCell>
        <mxCell id="Za427O05cXuheI7HC3TR-274" value="" style="endArrow=none;dashed=1;html=1;strokeWidth=2;strokeColor=#0000FF;" parent="1" edge="1">
          <mxGeometry width="50" height="50" relative="1" as="geometry">
            <mxPoint x="280" y="1100" as="sourcePoint" />
            <mxPoint x="280" y="1000" as="targetPoint" />
          </mxGeometry>
        </mxCell>
        <mxCell id="Za427O05cXuheI7HC3TR-275" value="" style="endArrow=none;dashed=1;html=1;strokeColor=#0000FF;strokeWidth=4;" parent="1" edge="1">
          <mxGeometry width="50" height="50" relative="1" as="geometry">
            <mxPoint x="280" y="1000" as="sourcePoint" />
            <mxPoint x="520" y="1000" as="targetPoint" />
          </mxGeometry>
        </mxCell>
        <mxCell id="Za427O05cXuheI7HC3TR-276" value="" style="endArrow=none;dashed=1;html=1;strokeColor=#0000FF;strokeWidth=4;" parent="1" edge="1">
          <mxGeometry width="50" height="50" relative="1" as="geometry">
            <mxPoint x="520" y="1100" as="sourcePoint" />
            <mxPoint x="520" y="1000" as="targetPoint" />
          </mxGeometry>
        </mxCell>
        <mxCell id="Za427O05cXuheI7HC3TR-277" value="" style="endArrow=none;dashed=1;html=1;strokeColor=#0000FF;strokeWidth=4;" parent="1" edge="1">
          <mxGeometry width="50" height="50" relative="1" as="geometry">
            <mxPoint x="280" y="1099" as="sourcePoint" />
            <mxPoint x="520" y="1099" as="targetPoint" />
          </mxGeometry>
        </mxCell>
        <mxCell id="Za427O05cXuheI7HC3TR-278" value="" style="endArrow=none;dashed=1;html=1;strokeWidth=4;strokeColor=#9933FF;" parent="1" edge="1">
          <mxGeometry width="50" height="50" relative="1" as="geometry">
            <mxPoint x="404" y="1102.37" as="sourcePoint" />
            <mxPoint x="404" y="992.37" as="targetPoint" />
          </mxGeometry>
        </mxCell>
        <mxCell id="Za427O05cXuheI7HC3TR-279" value="" style="endArrow=none;dashed=1;html=1;strokeColor=#9933FF;strokeWidth=4;" parent="1" edge="1">
          <mxGeometry width="50" height="50" relative="1" as="geometry">
            <mxPoint x="405" y="990" as="sourcePoint" />
            <mxPoint x="645" y="990" as="targetPoint" />
          </mxGeometry>
        </mxCell>
        <mxCell id="Za427O05cXuheI7HC3TR-281" value="" style="endArrow=none;dashed=1;html=1;strokeColor=#9933FF;strokeWidth=4;" parent="1" edge="1">
          <mxGeometry width="50" height="50" relative="1" as="geometry">
            <mxPoint x="640" y="1100" as="sourcePoint" />
            <mxPoint x="640" y="990" as="targetPoint" />
          </mxGeometry>
        </mxCell>
        <mxCell id="Za427O05cXuheI7HC3TR-282" value="" style="endArrow=none;dashed=1;html=1;strokeColor=#9933FF;strokeWidth=4;" parent="1" edge="1">
          <mxGeometry width="50" height="50" relative="1" as="geometry">
            <mxPoint x="400" y="1100" as="sourcePoint" />
            <mxPoint x="640" y="1100" as="targetPoint" />
          </mxGeometry>
        </mxCell>
        <mxCell id="f_-oh9McDup3GPCP_gh7-2" value="" style="shape=curlyBracket;whiteSpace=wrap;html=1;rounded=1;strokeWidth=2;rotation=-90;" vertex="1" parent="1">
          <mxGeometry x="355" y="285" width="20" height="230" as="geometry" />
        </mxCell>
        <mxCell id="f_-oh9McDup3GPCP_gh7-3" value="count size=4" style="text;html=1;align=center;verticalAlign=middle;resizable=0;points=[];autosize=1;" vertex="1" parent="1">
          <mxGeometry x="320" y="400" width="80" height="20" as="geometry" />
        </mxCell>
        <mxCell id="f_-oh9McDup3GPCP_gh7-5" value="" style="shape=curlyBracket;whiteSpace=wrap;html=1;rounded=1;strokeWidth=2;rotation=-90;size=0.5;" vertex="1" parent="1">
          <mxGeometry x="263.75" y="1021.25" width="37.5" height="240" as="geometry" />
        </mxCell>
        <mxCell id="f_-oh9McDup3GPCP_gh7-7" value="window size=6s" style="text;html=1;align=center;verticalAlign=middle;resizable=0;points=[];autosize=1;" vertex="1" parent="1">
          <mxGeometry x="230" y="1150" width="100" height="20" as="geometry" />
        </mxCell>
      </root>
    </mxGraphModel>
  </diagram>
</mxfile>
